<?xml version="1.0" encoding="UTF-8" standalone="no"?>
<svg
   xmlns:dc="http://purl.org/dc/elements/1.1/"
   xmlns:cc="http://creativecommons.org/ns#"
   xmlns:rdf="http://www.w3.org/1999/02/22-rdf-syntax-ns#"
   xmlns:svg="http://www.w3.org/2000/svg"
   xmlns="http://www.w3.org/2000/svg"
   xmlns:sodipodi="http://sodipodi.sourceforge.net/DTD/sodipodi-0.dtd"
   xmlns:inkscape="http://www.inkscape.org/namespaces/inkscape"
   inkscape:version="1.0 (4035a4fb49, 2020-05-01)"
   id="svg8"
   version="1.1"
   viewBox="0 0 160.80623 99.810898"
   height="99.810898mm"
   width="160.80623mm">
  <defs
     id="defs2" />
  <sodipodi:namedview
     inkscape:window-maximized="1"
     inkscape:window-y="1051"
     inkscape:window-x="1341"
     inkscape:window-height="1001"
     inkscape:window-width="1920"
     fit-margin-bottom="0"
     fit-margin-right="0"
     fit-margin-left="0"
     fit-margin-top="0"
     showgrid="false"
     inkscape:document-rotation="0"
     inkscape:current-layer="layer1"
     inkscape:document-units="mm"
     inkscape:cy="175.83333"
     inkscape:cx="195.99263"
     inkscape:zoom="0.88705485"
     inkscape:pageshadow="2"
     inkscape:pageopacity="0.0"
     borderopacity="1.0"
     bordercolor="#666666"
     pagecolor="#ffffff"
     id="base" />
  <metadata
     id="metadata5">
    <rdf:RDF>
      <cc:Work
         rdf:about="">
        <dc:format>image/svg+xml</dc:format>
        <dc:type
           rdf:resource="http://purl.org/dc/dcmitype/StillImage" />
        <dc:title></dc:title>
      </cc:Work>
    </rdf:RDF>
  </metadata>
  <g
     transform="translate(-167.88411,-89.630304)"
     id="layer1"
     inkscape:groupmode="layer"
     inkscape:label="Layer 1">
    <path
       id="path36"
       d="m 185.21772,90.293545 c -6.04579,2.401889 -4.06141,12.597755 -4.06141,17.719245 v 47.23744 c 0,4.79122 -1.70203,13.66714 2.2124,17.25246 2.42389,2.22016 6.23669,1.64251 9.25955,1.64251 h 20.91944 69.50653 19.56979 c 2.90308,0 6.71109,0.62623 9.41038,-0.63298 5.43635,-2.53665 3.41121,-12.72239 3.41121,-17.58717 v -47.91226 c 0,-4.48351 1.80785,-13.821279 -2.2566,-16.864248 -2.5245,-1.889835 -6.25828,-1.355917 -9.21535,-1.355917 h -21.59426 -68.15688 -19.5698 c -2.92076,0 -6.66965,-0.597756 -9.435,0.50092 m 62.22487,1.943753 c 3.28975,-1.353623 5.66107,3.280843 2.39157,4.886173 -3.06436,1.50431 -5.72923,-3.512576 -2.39157,-4.886173 m -54.12702,7.970242 c 2.68841,-0.764778 5.98984,-0.292606 8.76018,-0.292606 h 17.54533 56.01012 20.24462 c 2.62167,0 6.32779,-0.641417 8.69911,0.693586 4.26554,2.40088 2.77284,10.08411 2.77284,14.15247 v 37.11513 c 0,4.48823 1.16136,10.81265 -4.05905,12.8 -2.9051,1.10536 -6.39257,0.69641 -9.43736,0.69641 h -16.87052 -58.03458 -18.22015 c -2.99175,-0.005 -6.7389,0.16061 -9.21528,-1.84091 -3.57163,-2.8862 -2.25667,-9.62699 -2.25667,-13.67996 v -36.44031 c 0,-4.25123 -1.30227,-11.67797 4.06141,-13.20381 m 34.40336,26.70022 -2.69928,-0.67482 v 4.04892 l 2.02446,-0.67482 0.67482,16.1957 h 4.72375 l 0.67482,-16.1957 3.3741,0.67482 v -4.04892 l -3.3741,0.67482 c -0.53716,-3.26991 0.68764,-4.8473 4.04892,-4.72374 l 0.67482,-3.37411 c -6.93513,-1.25266 -10.10139,0.87687 -10.12231,8.09785 m 33.74104,19.5698 c 4.37553,-0.34888 4.2986,-3.75943 5.16507,-7.42303 1.65061,-6.97724 3.59005,-13.87451 4.95724,-20.91944 -4.02868,0.32108 -4.49431,3.19238 -5.25618,6.74821 -1.53792,7.17645 -3.64403,14.38157 -4.86613,21.59426 m -8.09785,-27.66765 v 9.44749 c -1.75116,-0.88037 -3.40987,-1.77343 -5.39857,-1.94841 -14.47288,-1.27359 -9.54264,25.76418 2.62168,19.38983 1.19713,-0.62759 1.91852,-1.59393 2.77689,-2.59536 l 0.67482,3.3741 h 4.04892 l 0.0263,-10.12231 -0.0263,-17.54534 h -4.72374 m -21.59426,3.37411 -0.67483,0.67482 0.67483,-0.67482 m -9.44749,20.24461 -1.35842,-4.25096 -12.13799,-5.19652 v -0.67482 c 5.06101,-1.71216 13.4431,-2.96206 12.82159,-9.44749 -4.59681,1.32373 -9.1009,3.59214 -13.49588,5.50012 -1.69521,0.7359 -3.98096,1.3821 -4.49673,3.40636 -0.70748,2.77675 1.72417,3.94642 3.82448,4.87369 4.72644,2.08661 9.74475,4.88368 14.84295,5.78962 m 51.28637,-19.56979 0.67482,4.72374 12.82159,4.72375 c -5.11784,2.97595 -12.73926,3.23893 -12.82159,10.1223 4.62657,-1.33229 9.0345,-3.70793 13.49573,-5.53393 1.7073,-0.69878 3.98212,-1.35133 4.49701,-3.37255 0.61409,-2.40999 -1.23222,-3.78048 -3.15951,-4.67327 -4.7892,-2.21793 -10.31328,-5.06689 -15.50805,-5.99004 m -28.34247,6.07338 -0.67482,0.67482 0.67482,-0.67482 m 22.9439,0 -0.67482,0.67482 0.67482,-0.67482 m -20.88974,1.0924 c 6.91016,-2.49184 8.30434,10.61459 2.63989,12.54843 -6.73066,2.29776 -8.29152,-10.5104 -2.63989,-12.54843 m 37.08544,-0.41758 -0.67482,0.67482 0.67482,-0.67482 m -33.74103,14.17124 -0.67482,0.67482 0.67482,-0.67482 m 12.82159,1.34964 -0.67482,0.67482 0.67482,-0.67482 m 64.78278,33.0662 -18.22016,0.67483 H 275.6312 l -12.14677,1.96102 -31.04175,0.0634 -12.14677,-2.01164 -51.96119,-0.0128 c 0.30421,3.45845 1.41064,6.93715 4.73414,8.65187 2.54447,1.3132 5.99348,0.79561 8.76227,0.79561 h 16.87052 c 32.84082,0 65.66139,0.67482 98.52381,0.67482 7.84479,0 18.17494,1.6162 25.64318,-1.27743 3.72434,-1.44277 7.01814,-5.53893 5.39857,-9.5197 z"
       style="fill:#6d9abe;stroke:none;stroke-width:0.674821" />
    <path
       transform="scale(0.26458333)"
       id="path38"
       d="m 634.5249,629.4319 c -0.0425,-2.43871 0.51485,-2.69453 1.35241,-0.62071 0.32715,0.81 0.16484,1.74894 -0.36067,2.08652 -0.52552,0.33759 -0.9718,-0.32202 -0.99174,-1.46581 z"
       style="fill:#00ffff;stroke-width:1.01015" />
    <path
       sodipodi:nodetypes="csscsccscsscsccscccccsccscsscsccccssc"
       style="fill:#6a9fc9;fill-opacity:1;stroke:none;stroke-width:0.67482"
       d="m 185.21772,90.293546 c -6.04579,2.401889 -4.06141,12.597754 -4.06141,17.719244 v 47.23744 c 0,4.79122 -1.70203,13.66714 2.2124,17.25246 2.42389,2.22016 6.23669,1.64251 9.25955,1.64251 h 20.91944 69.50653 19.56979 c 2.90308,0 6.71109,0.62623 9.41038,-0.63298 5.43635,-2.53665 3.41121,-12.72239 3.41121,-17.58717 v -47.91226 c 0,-4.48351 1.80785,-13.821278 -2.2566,-16.864247 -2.5245,-1.889835 -6.25828,-1.355917 -9.21535,-1.355917 h -21.59426 -68.15688 -19.5698 c -2.92076,0 -6.66965,-0.597756 -9.435,0.50092 m 62.22487,1.943753 c 3.28975,-1.353623 5.66107,3.280843 2.39157,4.886173 -3.06436,1.50431 -5.72923,-3.512576 -2.39157,-4.886173 m -54.12702,7.970241 c 2.68841,-0.764777 5.98984,-0.292605 8.76018,-0.292605 h 17.54533 56.01012 20.24462 c 2.62167,0 6.32779,-0.641417 8.69911,0.693585 4.26554,2.40088 2.77284,10.08411 2.77284,14.15247 v 37.11513 c 0,4.48823 1.16136,10.81265 -4.05905,12.8 -2.9051,1.10536 -6.39257,0.69641 -9.43736,0.69641 h -16.87052 -58.03458 -18.22015 c -2.99175,-0.005 -6.7389,0.16061 -9.21528,-1.84091 -3.57163,-2.8862 -2.25667,-9.62699 -2.25667,-13.67996 v -36.44031 c 0,-4.25123 -1.30227,-11.67797 4.06141,-13.20381"
       id="path36-7" />
    <path
       sodipodi:nodetypes="ccccccccccccccccccccccccccccccccccccccccccccsccccccccccccccccccccc"
       id="path36-7-9"
       d="m 227.71893,126.90776 -2.69928,-0.67482 v 4.04892 l 2.02446,-0.67482 0.67482,16.1957 h 4.72375 l 0.67482,-16.1957 3.3741,0.67482 v -4.04892 l -3.3741,0.67482 c -0.53716,-3.26991 0.68764,-4.8473 4.04892,-4.72374 l 0.67482,-3.37411 c -6.93513,-1.25266 -10.10139,0.87687 -10.12231,8.09785 m 33.74104,19.5698 c 4.37553,-0.34888 4.2986,-3.75943 5.16507,-7.42303 1.65061,-6.97724 3.59005,-13.87451 4.95724,-20.91944 -4.02868,0.32108 -4.49431,3.19238 -5.25618,6.74821 -1.53792,7.17645 -3.64403,14.38157 -4.86613,21.59426 m -8.09785,-27.66765 v 9.44749 c -1.75116,-0.88037 -3.40987,-1.77343 -5.39857,-1.94841 -14.47288,-1.27359 -9.54264,25.76418 2.62168,19.38983 1.19713,-0.62759 1.91852,-1.59393 2.77689,-2.59536 l 0.67482,3.3741 h 4.04892 l 0.0263,-10.12231 -0.0263,-17.54534 h -4.72374 m -21.59426,3.37411 -0.67483,0.67482 0.67483,-0.67482 m -9.44749,20.24461 -1.35842,-4.25096 -12.13799,-5.19652 v -0.67482 c 5.06101,-1.71216 13.4431,-2.96206 12.82159,-9.44749 -4.59681,1.32373 -9.1009,3.59214 -13.49588,5.50012 -1.69521,0.7359 -3.98096,1.3821 -4.49673,3.40636 -0.70748,2.77675 1.72417,3.94642 3.82448,4.87369 4.72644,2.08661 9.74475,4.88368 14.84295,5.78962 m 51.28637,-19.56979 0.67482,4.72374 12.82159,4.72375 c -5.11784,2.97595 -12.73926,3.23893 -12.82159,10.1223 4.62657,-1.33229 9.0345,-3.70793 13.49573,-5.53393 1.7073,-0.69878 3.98212,-1.35133 4.49701,-3.37255 0.61409,-2.40999 -1.23222,-3.78048 -3.15951,-4.67327 -4.7892,-2.21793 -10.31328,-5.06689 -15.50805,-5.99004 m -28.34247,6.07338 -0.67482,0.67482 0.67482,-0.67482 m 22.9439,0 -0.67482,0.67482 0.67482,-0.67482 m -20.88974,1.0924 c 6.91016,-2.49184 8.30434,10.61459 2.63989,12.54843 -6.73066,2.29776 -8.29152,-10.5104 -2.63989,-12.54843 m 37.08544,-0.41758 -0.67482,0.67482 0.67482,-0.67482 m -33.74103,14.17124 -0.67482,0.67482 0.67482,-0.67482 m 12.82159,1.34964 -0.67482,0.67482 0.67482,-0.67482"
       style="fill:#bab6cd;fill-opacity:1;stroke:none;stroke-width:0.67482" />
  </g>
</svg>
